<svg width="40" height="23" viewBox="0 0 40 23" fill="none" xmlns="http://www.w3.org/2000/svg">
<path d="M40 22.3816C39.4178 22.5998 38.7752 22.5994 38.1934 22.3803C37.6116 22.1612 37.1307 21.7387 36.8417 21.1925L31.0917 13.3126L30.2583 12.211L23.5867 21.2024C23.315 21.7257 22.8603 22.133 22.3075 22.3483C21.7548 22.5635 21.1418 22.5718 20.5833 22.3717L29.18 10.9426L21.1833 0.618366C21.7583 0.413029 22.3872 0.410307 22.9639 0.610657C23.5407 0.811008 24.0302 1.20219 24.35 1.71834L30.31 9.69561L36.3033 1.75137C36.5771 1.23737 37.032 0.840983 37.5814 0.637572C38.1308 0.43416 38.7365 0.437905 39.2833 0.648095L36.18 4.72922L31.9767 10.1515C31.8599 10.2546 31.7665 10.3811 31.7026 10.5226C31.6386 10.664 31.6056 10.8173 31.6056 10.9723C31.6056 11.1273 31.6386 11.2806 31.7026 11.422C31.7665 11.5635 31.8599 11.69 31.9767 11.7932L39.9833 22.3833L40 22.3816ZM0.00335333 10.8005L0.703353 7.37345C2.62669 0.596896 10.4667 -2.2224 15.86 1.97269C19.0183 4.43193 19.8067 7.91353 19.6517 11.8378H1.86002C1.57169 18.8455 6.67502 23.077 13.2 20.915C14.2578 20.5377 15.2046 19.9063 15.9556 19.0773C16.7066 18.2483 17.2384 17.2476 17.5033 16.165C17.8483 15.065 18.4167 14.8767 19.46 15.1938C19.2862 16.5356 18.8075 17.8208 18.0601 18.9528C17.3127 20.0847 16.316 21.034 15.145 21.7292C13.2107 22.7777 10.9914 23.1933 8.80439 22.9165C6.61738 22.6398 4.57468 21.6848 2.96835 20.1883C1.38007 18.4168 0.420147 16.179 0.23502 13.8164C0.23502 13.4283 0.101687 13.0649 0.0116867 12.7164C0.00357338 12.0784 -0.000315595 11.4403 1.99938e-05 10.8022L0.00335333 10.8005ZM1.88169 10.3282H17.9717C17.8717 5.24783 14.6367 1.64402 10.3217 1.61098C5.51835 1.54492 2.08169 5.06946 1.87002 10.3051L1.88169 10.3282Z" fill="white"/>
</svg>
