<svg width="22" height="33" viewBox="0 0 22 33" fill="none" xmlns="http://www.w3.org/2000/svg">
<path fill-rule="evenodd" clip-rule="evenodd" d="M10.7144 16.0715C10.7144 13.1129 13.1129 10.7144 16.0715 10.7144C19.0301 10.7144 21.4286 13.1129 21.4286 16.0715C21.4286 19.0301 19.0301 21.4286 16.0715 21.4286C13.1129 21.4286 10.7144 19.0301 10.7144 16.0715Z" fill="#1ABCFE"/>
<path fill-rule="evenodd" clip-rule="evenodd" d="M0 27.1428C0 24.1842 2.39847 21.7856 5.35714 21.7856H10.7143V27.1428C10.7143 30.1014 8.31576 32.4999 5.35714 32.4999C2.39847 32.4999 0 30.1014 0 27.1428Z" fill="#0ACF83"/>
<path fill-rule="evenodd" clip-rule="evenodd" d="M10.7144 0V10.7143H16.0715C19.0301 10.7143 21.4286 8.31576 21.4286 5.35714C21.4286 2.39847 19.0301 0 16.0715 0H10.7144Z" fill="#FF7262"/>
<path fill-rule="evenodd" clip-rule="evenodd" d="M0 5.35714C0 8.31576 2.39847 10.7143 5.35714 10.7143H10.7143V0H5.35714C2.39847 0 0 2.39847 0 5.35714Z" fill="#F24E1E"/>
<path fill-rule="evenodd" clip-rule="evenodd" d="M0 16.0715C0 19.0301 2.39847 21.4286 5.35714 21.4286H10.7143V10.7144H5.35714C2.39847 10.7144 0 13.1129 0 16.0715Z" fill="#A259FF"/>
</svg>
