<svg width="42" height="42" viewBox="0 0 42 42" fill="none" xmlns="http://www.w3.org/2000/svg">
<path d="M0.867587 22.8446C-0.289196 21.6877 -0.289196 19.8122 0.867587 18.6554L18.6554 0.867587C19.8122 -0.289196 21.6877 -0.289196 22.8446 0.867587L40.6323 18.6554C41.7892 19.8122 41.7892 21.6877 40.6323 22.8446L22.8446 40.6323C21.6877 41.7892 19.8122 41.7892 18.6554 40.6323L0.867587 22.8446Z" fill="#EE513B"/>
<path d="M15.042 4.5376L13.2407 6.33891L17.893 10.9912C17.7048 11.395 17.5997 11.8453 17.5997 12.3202C17.5997 13.6683 18.4467 14.8186 19.6376 15.2678V26.6486C18.4467 27.0979 17.5997 28.2481 17.5997 29.5963C17.5997 31.3357 19.0098 32.7459 20.7493 32.7459C22.4887 32.7459 23.8988 31.3357 23.8988 29.5963C23.8988 28.3741 23.2026 27.3144 22.1852 26.7924V15.2834L26.6323 19.7306C26.4533 20.1261 26.3537 20.5653 26.3537 21.0277C26.3537 22.7672 27.7638 24.1773 29.5032 24.1773C31.2427 24.1773 32.6528 22.7672 32.6528 21.0277C32.6528 19.2883 31.2427 17.8782 29.5032 17.8782C29.1652 17.8782 28.8397 17.9314 28.5344 18.03L23.7582 13.2538C23.8496 12.9588 23.8988 12.6452 23.8988 12.3202C23.8988 10.5807 22.4887 9.17057 20.7493 9.17057C20.4242 9.17057 20.1107 9.21982 19.8157 9.31125L15.042 4.5376Z" fill="white"/>
</svg>
