<svg width="40" height="40" viewBox="0 0 40 40" fill="none" xmlns="http://www.w3.org/2000/svg">
<path fill-rule="evenodd" clip-rule="evenodd" d="M20 3.75C11.0254 3.75 3.75 11.0254 3.75 20C3.75 28.9748 11.0254 36.25 20 36.25C23.3832 36.25 26.522 35.2177 29.123 33.4497L15 16.4428V28.125C15 29.1605 14.1605 30 13.125 30C12.0895 30 11.25 29.1605 11.25 28.125V11.25C11.25 10.46 11.7452 9.75475 12.4882 9.48645C13.2313 9.21815 14.0628 9.44438 14.5675 10.0521L33.252 32.5522C33.9055 33.3392 33.8075 34.505 33.0317 35.1717C29.5325 38.18 24.9764 40 20 40C8.9543 40 0 31.0458 0 20C0 8.9543 8.9543 0 20 0C31.0458 0 40 8.9543 40 20C40 21.9107 39.7315 23.7618 39.229 25.5163C38.984 26.3723 38.6833 27.2045 38.3313 28.0093C37.9163 28.958 36.8107 29.3905 35.862 28.9755C34.9132 28.5605 34.4805 27.455 34.8957 26.5062C35.1812 25.8532 35.4253 25.178 35.624 24.4838C36.0313 23.0618 36.25 21.558 36.25 20C36.25 11.0254 28.9748 3.75 20 3.75ZM26.25 9.375C27.2855 9.375 28.125 10.2145 28.125 11.25V18.75C28.125 19.7855 27.2855 20.625 26.25 20.625C25.2145 20.625 24.375 19.7855 24.375 18.75V11.25C24.375 10.2145 25.2145 9.375 26.25 9.375Z" fill="white"/>
</svg>
