<svg width="40" height="44" viewBox="0 0 40 44" fill="none" xmlns="http://www.w3.org/2000/svg">
<path d="M21.8039 0.459572C20.7119 -0.154567 19.2882 -0.151813 18.1952 0.459572C12.7214 3.48042 7.24742 6.50218 1.77255 9.52164C0.707213 10.0821 -0.0113264 11.2261 0.000135152 12.4136V30.6659C-0.00755716 31.8765 0.748028 33.0316 1.84084 33.5843C3.4134 34.421 4.94123 35.3425 6.54222 36.1234C8.39156 37.0322 10.7053 37.2331 12.5772 36.2854C14.0968 35.5 14.7717 33.7531 14.7697 32.1477C14.782 26.124 14.7717 20.1002 14.7745 14.0763C14.8106 13.8086 14.6095 13.5225 14.3175 13.5289C13.618 13.5179 12.9175 13.5225 12.218 13.5271C11.9537 13.5022 11.6957 13.7217 11.7157 13.9874C11.7063 19.9723 11.7175 25.9591 11.71 31.945C11.7252 32.773 11.1659 33.5686 10.3679 33.8483C8.52493 34.4943 3.26458 31.0788 3.26458 31.0788C3.07154 30.9894 2.94895 30.78 2.96788 30.572C2.96788 24.5502 2.96881 18.5282 2.96788 12.5072C2.94134 12.2645 3.09095 12.0459 3.31388 11.9468C8.76974 8.9437 14.2228 5.93315 19.6786 2.92825C19.8682 2.80177 20.1323 2.80216 20.3214 2.92917C25.7773 5.93315 31.2313 8.94095 36.688 11.9441C36.9117 12.0431 37.055 12.2654 37.0322 12.5072C37.0313 18.5282 37.034 24.5502 37.0303 30.5713C37.0465 30.7843 36.9363 30.9908 36.7374 31.0843C31.3325 34.0711 25.866 36.9616 20.51 40.0351C20.2763 40.1691 20.0116 40.321 19.7497 40.1733C18.3412 39.3942 16.9499 38.5848 15.546 37.7982C15.3934 37.703 15.1991 37.662 15.0399 37.7687C14.4105 38.1003 13.8185 38.369 13.0957 38.6551C12.0806 39.057 12.2428 39.2213 13.1583 39.7547C14.8 40.6837 16.4445 41.6091 18.0862 42.5391C19.1669 43.2136 20.6191 43.2616 21.7346 42.6383C27.2094 39.6213 32.6825 36.6007 38.1583 33.5836C39.2482 33.0277 40.0076 31.8773 39.9999 30.6657V12.4136C40.0105 11.2502 39.3194 10.1266 38.2862 9.55784C32.7933 6.52227 27.2977 3.4933 21.8039 0.459572Z" fill="#8CC84B"/>
<path d="M30.0645 14.1635C27.9157 13.0139 25.3594 12.9527 22.9715 13.103C21.2465 13.2735 19.4322 13.7495 18.1754 14.9861C16.8863 16.2292 16.6057 18.2366 17.218 19.8593C17.6568 21.0061 18.7612 21.7518 19.9034 22.1462C21.3746 22.6656 22.9199 22.8262 24.4655 22.9869C25.8754 23.1333 27.2857 23.2799 28.6408 23.6989C29.1943 23.8822 29.8389 24.1629 30.0085 24.7652C30.1651 25.4784 29.9934 26.3075 29.4143 26.803C27.5749 28.2589 22.4583 28.0358 20.6409 26.8899C19.9062 26.4018 19.5895 25.5376 19.4608 24.7141C19.4465 24.4575 19.2398 24.2221 18.9612 24.2416C18.2635 24.2333 17.5658 24.2352 16.8682 24.2407C16.6248 24.2202 16.3717 24.3935 16.3583 24.6419C16.2149 28.4138 19.6791 30.0581 22.9291 30.4201C24.7859 30.597 26.6834 30.5869 28.5119 30.1884C29.8863 29.8755 31.2645 29.2992 32.2106 28.2406C33.3774 26.9539 33.6068 25.0384 33.0836 23.4358C32.6836 22.2399 31.5403 21.4729 30.3717 21.0782C28.7825 20.5333 26.8991 20.2404 25.4597 20.1033C23.3675 19.9041 20.8814 19.9855 20.2892 18.6107C20.0531 17.8909 20.254 16.997 20.9155 16.5542C22.6659 15.367 26.2282 15.5247 28.0408 16.4116C28.8731 16.8284 29.3554 17.6844 29.5545 18.5486C29.5914 18.8024 29.7622 19.0673 30.056 19.0562C30.7489 19.0701 31.4419 19.0599 32.1346 19.0609C32.3726 19.0775 32.6332 18.9432 32.6797 18.6995C32.6503 16.8933 31.728 15.0444 30.0645 14.1635Z" fill="#8CC84B"/>
</svg>
