<svg width="40" height="30" viewBox="0 0 40 30" fill="none" xmlns="http://www.w3.org/2000/svg">
<path d="M34.4392 17.2605C33.1832 17.2621 31.944 17.5496 30.8153 18.1013C30.4619 17.5142 30.189 16.8822 30.0039 16.2223C29.8976 15.7051 29.873 15.1743 29.9311 14.6494C30.0532 14.0718 30.2116 13.5025 30.4053 12.9449C30.3982 12.872 30.3182 12.5274 29.514 12.516C28.7098 12.5045 28.017 12.669 27.9427 12.882C27.8031 13.2712 27.6909 13.6697 27.607 14.0746C26.9415 15.7183 26.1222 17.2954 25.1602 18.7848C24.6212 17.9002 24.3995 16.8582 24.5316 15.8305C24.6537 15.253 24.8121 14.6837 25.0059 14.1261C24.9987 14.0531 24.9187 13.7085 24.1145 13.6971C23.3103 13.6856 22.6176 13.8501 22.5433 14.0631C22.469 14.2762 22.3747 14.7781 22.2076 15.2557C22.0405 15.7333 20.0892 20.0975 19.5779 21.2228C19.315 21.7948 19.0879 22.2609 18.9279 22.5755C18.9203 22.596 18.9108 22.6156 18.8994 22.6342C18.7565 22.9044 18.6808 23.0517 18.6808 23.0517V23.0589C18.5708 23.2562 18.4537 23.4392 18.3951 23.4392C18.293 23.0307 18.2979 22.6027 18.4094 22.1966C18.6951 20.6823 19.395 18.3286 19.3879 18.2471C19.3879 18.2028 19.5193 17.7938 18.9351 17.5822C18.7996 17.5177 18.6474 17.4968 18.4996 17.5224C18.3517 17.548 18.2154 17.6188 18.1094 17.7252C18.058 17.7252 18.0223 17.8496 18.0223 17.8496C18.0223 17.8496 18.658 15.2028 16.8096 15.2028C16.0898 15.3477 15.4062 15.6353 14.7991 16.0486C14.1919 16.4619 13.6735 16.9926 13.2742 17.6094C12.7771 17.8796 11.7187 18.4573 10.5859 19.0793C10.1574 19.321 9.70887 19.5627 9.2932 19.7943C9.26463 19.7657 9.23464 19.7285 9.20607 19.6999C6.9563 17.3005 2.82101 15.6075 2.99956 12.3973C3.06527 11.2276 3.46666 8.15609 10.9402 4.42539C17.091 1.39107 21.9862 2.23187 22.8332 4.09651C24.046 6.75904 20.2107 11.7023 13.8556 12.4187C13.1525 12.5615 12.4264 12.5443 11.7309 12.3683C11.0354 12.1923 10.3883 11.8621 9.83743 11.402C9.50175 11.036 9.45033 11.0145 9.32606 11.0874C9.12179 11.1976 9.25321 11.5264 9.32606 11.7166C9.56849 12.1558 9.89641 12.5419 10.2904 12.8521C10.6844 13.1623 11.1366 13.3903 11.6201 13.5226C14.1202 14.0635 16.7268 13.8049 19.0722 12.7834C22.929 11.2919 25.9286 7.14512 25.0487 3.67182C24.1645 0.14703 18.3209 -1.01551 12.79 0.954942C9.3257 2.12187 6.12471 3.95995 3.36952 6.36438C0.322691 9.2171 -0.158689 11.6952 0.038434 12.7347C0.752647 16.4211 5.82499 18.8191 7.85478 20.5994C7.75193 20.658 7.65765 20.7095 7.57766 20.7524C6.56205 21.2571 2.69102 23.2834 1.72112 25.4254C0.625517 27.8563 1.89682 29.5936 2.73673 29.8282C4.00232 30.1314 5.33093 30.0315 6.53707 29.5424C7.74321 29.0533 8.76669 28.1994 9.46461 27.0998C10.0589 26.1878 10.4242 25.1456 10.5294 24.0618C10.6347 22.978 10.4766 21.8848 10.0688 20.8753C10.0619 20.859 10.0523 20.844 10.0403 20.831L10.8359 20.3634C11.3544 20.056 11.8658 19.7714 12.3043 19.5369C12.007 20.3955 11.8324 21.2919 11.7858 22.1995C11.6848 23.5905 12.1101 24.9686 12.9771 26.0603C13.109 26.174 13.2622 26.2603 13.4277 26.3143C13.5932 26.3683 13.7678 26.3889 13.9413 26.3749C14.7984 26.3749 15.1912 25.6599 15.6211 24.8105C16.1468 23.7724 16.621 22.5655 16.621 22.5655C16.621 22.5655 16.0297 25.8272 17.6366 25.8272C18.2209 25.8272 18.8122 25.0665 19.0765 24.6833V24.6904C19.0765 24.6904 19.0908 24.669 19.1208 24.6175L19.215 24.4645V24.4502C19.4493 24.0412 19.975 23.1118 20.7563 21.5689C21.7648 19.5798 22.7361 17.0932 22.7361 17.0932C22.8298 17.6397 22.9591 18.1794 23.1232 18.709C23.3585 19.3509 23.6367 19.9763 23.956 20.5808C23.7217 20.9097 23.576 21.0927 23.576 21.0927L23.5832 21.0998C23.3932 21.3487 23.1889 21.6189 22.9618 21.882C22.2861 22.6257 21.6591 23.4124 21.0849 24.2371C20.9995 24.3756 20.9702 24.5415 21.0028 24.701C21.0355 24.8604 21.1277 25.0013 21.2606 25.0951C21.5613 25.2517 21.904 25.3083 22.239 25.2567C22.7439 25.2281 23.2403 25.1145 23.7074 24.9206C24.1588 24.7616 24.5847 24.5376 24.9716 24.2557C25.3705 23.9791 25.6915 23.6044 25.9039 23.1676C26.1163 22.7309 26.2129 22.2468 26.1843 21.7619C26.1394 21.1511 25.9835 20.5536 25.7244 19.9988C25.7972 19.8958 25.8672 19.7943 25.9358 19.6914C26.7479 18.4779 27.4799 17.2126 28.127 15.9035C28.2207 16.4499 28.35 16.9897 28.5141 17.5193C28.7081 18.074 28.947 18.612 29.2283 19.128C28.294 19.8475 27.5581 20.7933 27.09 21.8763C26.63 23.2076 26.9871 23.8067 27.6613 23.9454C28.0303 23.9709 28.3991 23.8952 28.7284 23.7266C29.2124 23.5674 29.6684 23.3329 30.0797 23.0317C30.5133 22.7755 30.8764 22.4154 31.1365 21.9839C31.3966 21.5523 31.5454 21.0628 31.5695 20.5593C31.5371 20.0568 31.4237 19.5628 31.2338 19.0965C32.4667 18.6143 33.8034 18.4606 35.1134 18.6504C38.5902 19.0593 39.2773 21.2314 39.1459 22.1466C39.0842 22.471 38.9539 22.7784 38.7637 23.0483C38.5735 23.3181 38.3278 23.544 38.0431 23.7109C37.8017 23.8639 37.7217 23.9154 37.7432 24.0255C37.7717 24.1871 37.886 24.1785 38.0931 24.1499C38.6171 23.9869 39.0795 23.6686 39.4191 23.2372C39.7588 22.8058 39.9599 22.2814 39.9958 21.7333C40.1058 19.5884 38.0603 17.2362 34.4435 17.2576L34.4392 17.2605ZM7.61337 26.3091C6.45921 27.5674 4.85223 28.0422 4.15801 27.6404C3.41237 27.2114 3.7052 25.3525 5.1222 24.0198C5.96276 23.2623 6.87127 22.584 7.83621 21.9936C8.00476 21.8906 8.25331 21.7447 8.55042 21.5646L8.63041 21.5202L8.80611 21.4101C9.05926 22.2592 9.08222 23.1604 8.87262 24.0213C8.66302 24.8822 8.22841 25.6718 7.61337 26.3091ZM16.0139 20.5894C15.6126 21.5689 14.7726 24.0784 14.2613 23.9383C13.8227 23.821 13.5471 21.9192 14.1741 20.0403C14.4907 19.1358 14.9519 18.2887 15.5397 17.5322C16.1682 16.8301 16.8624 16.5956 17.0296 16.8815C16.8771 18.1612 16.5348 19.4108 16.0139 20.5894ZM22.9461 23.9097C22.7775 23.9969 22.6176 24.0527 22.5447 24.0126C22.4933 23.984 22.6176 23.8696 22.6176 23.8696C22.6176 23.8696 23.4875 22.933 23.8303 22.5098C24.0274 22.2609 24.2588 21.9692 24.5102 21.6389V21.7333C24.5102 22.8515 23.4289 23.6051 22.9475 23.9125L22.9461 23.9097ZM28.2941 22.6885C28.1698 22.6013 28.1913 22.3081 28.6084 21.3944C28.8984 20.8076 29.3036 20.2853 29.7997 19.8587C29.8757 20.0751 29.9153 20.3027 29.9168 20.5322C29.9224 21.0205 29.7664 21.4971 29.4732 21.8874C29.1799 22.2777 28.7658 22.5599 28.2955 22.6899L28.2941 22.6885Z" fill="#CD6799"/>
</svg>
