<svg width="34" height="34" viewBox="0 0 34 34" fill="none" xmlns="http://www.w3.org/2000/svg">
<path d="M32.4069 0H1.59314C0.713274 0 0 0.713274 0 1.59314V32.4069C0 33.2867 0.713274 34 1.59314 34H32.4069C33.2867 34 34 33.2867 34 32.4069V1.59314C34 0.713274 33.2867 0 32.4069 0Z" fill="#3178C6"/>
<path fill-rule="evenodd" clip-rule="evenodd" d="M19.7264 26.4217V30.1472C20.4033 30.4812 21.1247 30.7164 21.8684 30.8454C22.7279 31.004 23.6003 31.0821 24.4743 31.0785C25.3261 31.0826 26.176 30.9967 27.0097 30.8223C27.7583 30.671 28.4725 30.3829 29.1165 29.9723C29.7143 29.5864 30.2071 29.0582 30.5506 28.435C31.1658 27.1446 31.2469 25.6636 30.7764 24.3137C30.5779 23.8089 30.2821 23.3481 29.9058 22.9574C29.5019 22.5419 29.0431 22.1836 28.5422 21.8924C27.9654 21.5547 27.3662 21.2569 26.7487 21.0012C26.2629 20.7996 25.8258 20.6037 25.4372 20.4134C25.0921 20.2482 24.7618 20.0536 24.45 19.8318C24.2058 19.6606 23.9937 19.4477 23.8234 19.2028C23.6763 18.9805 23.5997 18.7189 23.6037 18.4524C23.6004 18.207 23.6688 17.9661 23.8004 17.759C23.9433 17.5423 24.134 17.3612 24.3577 17.2296C24.6313 17.0685 24.9289 16.9525 25.2393 16.8859C25.6203 16.8013 26.0098 16.7605 26.4002 16.7645C26.7284 16.7656 27.0562 16.7892 27.3813 16.8349C27.7323 16.8824 28.0797 16.9542 28.4207 17.0499C28.7677 17.146 29.107 17.2678 29.4359 17.4142C29.755 17.5564 30.0603 17.728 30.3478 17.9266V14.4501C29.7493 14.2236 29.1286 14.0608 28.496 13.9644C27.7321 13.8532 26.9608 13.8008 26.1889 13.8077C25.3451 13.8032 24.5038 13.899 23.6826 14.0931C22.9403 14.2627 22.2346 14.5642 21.5989 14.9832C21.0083 15.3765 20.5207 15.9058 20.1769 16.5265C19.8126 17.2158 19.6324 17.9875 19.6536 18.7669C19.6267 19.7975 19.9662 20.8044 20.6117 21.6083C21.4036 22.4997 22.4022 23.1831 23.5199 23.5985C24.0299 23.809 24.5055 24.015 24.9467 24.2166C25.3447 24.3937 25.7273 24.6037 26.0905 24.8444C26.3834 25.0349 26.6407 25.2754 26.8507 25.5547C27.0352 25.8081 27.1332 26.1143 27.1299 26.4278C27.1316 26.6627 27.0713 26.8939 26.9551 27.0981C26.826 27.3175 26.6445 27.5015 26.4269 27.6336C26.1546 27.7996 25.8567 27.9194 25.5453 27.9882C25.1397 28.0788 24.7248 28.1216 24.3092 28.1157C23.4935 28.1142 22.6844 27.9703 21.9182 27.6907C21.1178 27.4018 20.3755 26.9721 19.7264 26.4217ZM13.468 17.147H18.3252V14.0785H4.78223V17.147H9.61751V30.8126H13.468V17.147Z" fill="white"/>
</svg>
